solid ServoSupport
   facet normal 0.000000e+00 -0.000000e+00 -1.000000e+00
      outer loop
         vertex 5.949448e+01 9.999999e-01 2.700000e+01
         vertex 6.649448e+01 0.000000e+00 2.700000e+01
         vertex 5.849448e+01 0.000000e+00 2.700000e+01
      endloop
   endfacet
   facet normal 0.000000e+00 -0.000000e+00 -1.000000e+00
      outer loop
         vertex 5.949448e+01 2.100000e+01 2.700000e+01
         vertex 5.949448e+01 9.999999e-01 2.700000e+01
         vertex 5.849448e+01 0.000000e+00 2.700000e+01
      endloop
   endfacet
   facet normal 0.000000e+00 0.000000e+00 -1.000000e+00
      outer loop
         vertex 5.849448e+01 2.200000e+01 2.700000e+01
         vertex 5.949448e+01 2.100000e+01 2.700000e+01
         vertex 5.849448e+01 0.000000e+00 2.700000e+01
      endloop
   endfacet
   facet normal -0.000000e+00 -1.000000e+00 0.000000e+00
      outer loop
         vertex 6.649448e+01 0.000000e+00 3.000000e+01
         vertex 5.849448e+01 0.000000e+00 3.000000e+01
         vertex 5.849448e+01 0.000000e+00 2.700000e+01
      endloop
   endfacet
   facet normal 0.000000e+00 -1.000000e+00 0.000000e+00
      outer loop
         vertex 6.649448e+01 0.000000e+00 2.700000e+01
         vertex 6.649448e+01 0.000000e+00 3.000000e+01
         vertex 5.849448e+01 0.000000e+00 2.700000e+01
      endloop
   endfacet
   facet normal -1.000000e+00 0.000000e+00 0.000000e+00
      outer loop
         vertex 5.849448e+01 0.000000e+00 3.000000e+01
         vertex 5.849448e+01 2.974634e+00 3.000000e+01
         vertex 5.849448e+01 0.000000e+00 2.700000e+01
      endloop
   endfacet
   facet normal -1.000000e+00 0.000000e+00 -0.000000e+00
      outer loop
         vertex 5.849448e+01 2.974634e+00 3.000000e+01
         vertex 5.849448e+01 2.974634e+00 2.800000e+01
         vertex 5.849448e+01 0.000000e+00 2.700000e+01
      endloop
   endfacet
   facet normal -1.000000e+00 0.000000e+00 -0.000000e+00
      outer loop
         vertex 5.849448e+01 2.974634e+00 2.800000e+01
         vertex 5.849448e+01 7.974633e+00 2.800000e+01
         vertex 5.849448e+01 0.000000e+00 2.700000e+01
      endloop
   endfacet
   facet normal -1.000000e+00 0.000000e+00 -0.000000e+00
      outer loop
         vertex 5.849448e+01 7.974633e+00 2.800000e+01
         vertex 5.849448e+01 2.200000e+01 2.700000e+01
         vertex 5.849448e+01 0.000000e+00 2.700000e+01
      endloop
   endfacet
   facet normal 0.000000e+00 0.000000e+00 -1.000000e+00
      outer loop
         vertex 5.949448e+01 9.999999e-01 2.700000e+01
         vertex 6.549448e+01 9.999999e-01 2.700000e+01
         vertex 6.649448e+01 0.000000e+00 2.700000e+01
      endloop
   endfacet
   facet normal 0.000000e+00 0.000000e+00 -1.000000e+00
      outer loop
         vertex 6.549448e+01 9.999999e-01 2.700000e+01
         vertex 6.649448e+01 2.200000e+01 2.700000e+01
         vertex 6.649448e+01 0.000000e+00 2.700000e+01
      endloop
   endfacet
   facet normal 1.000000e+00 0.000000e+00 0.000000e+00
      outer loop
         vertex 6.649448e+01 2.974634e+00 2.800000e+01
         vertex 6.649448e+01 0.000000e+00 3.000000e+01
         vertex 6.649448e+01 0.000000e+00 2.700000e+01
      endloop
   endfacet
   facet normal 1.000000e+00 0.000000e+00 0.000000e+00
      outer loop
         vertex 6.649448e+01 7.974633e+00 2.800000e+01
         vertex 6.649448e+01 2.974634e+00 2.800000e+01
         vertex 6.649448e+01 0.000000e+00 2.700000e+01
      endloop
   endfacet
   facet normal 1.000000e+00 0.000000e+00 0.000000e+00
      outer loop
         vertex 6.649448e+01 2.200000e+01 2.700000e+01
         vertex 6.649448e+01 7.974633e+00 2.800000e+01
         vertex 6.649448e+01 0.000000e+00 2.700000e+01
      endloop
   endfacet
   facet normal 0.000000e+00 0.000000e+00 1.000000e+00
      outer loop
         vertex 6.649448e+01 0.000000e+00 3.000000e+01
         vertex 5.849448e+01 2.974634e+00 3.000000e+01
         vertex 5.849448e+01 0.000000e+00 3.000000e+01
      endloop
   endfacet
   facet normal 0.000000e+00 0.000000e+00 1.000000e+00
      outer loop
         vertex 5.849448e+01 7.974633e+00 3.000000e+01
         vertex 5.849448e+01 2.974634e+00 3.000000e+01
         vertex 6.649448e+01 0.000000e+00 3.000000e+01
      endloop
   endfacet
   facet normal 0.000000e+00 0.000000e+00 1.000000e+00
      outer loop
         vertex 6.649448e+01 2.974634e+00 3.000000e+01
         vertex 5.849448e+01 7.974633e+00 3.000000e+01
         vertex 6.649448e+01 0.000000e+00 3.000000e+01
      endloop
   endfacet
   facet normal 1.000000e+00 0.000000e+00 0.000000e+00
      outer loop
         vertex 6.649448e+01 2.974634e+00 2.800000e+01
         vertex 6.649448e+01 2.974634e+00 3.000000e+01
         vertex 6.649448e+01 0.000000e+00 3.000000e+01
      endloop
   endfacet
   facet normal 0.000000e+00 1.000000e+00 0.000000e+00
      outer loop
         vertex 6.549448e+01 9.999999e-01 2.800000e+01
         vertex 6.549448e+01 9.999999e-01 2.700000e+01
         vertex 5.949448e+01 9.999999e-01 2.700000e+01
      endloop
   endfacet
   facet normal -0.000000e+00 1.000000e+00 0.000000e+00
      outer loop
         vertex 5.949448e+01 9.999999e-01 2.800000e+01
         vertex 6.549448e+01 9.999999e-01 2.800000e+01
         vertex 5.949448e+01 9.999999e-01 2.700000e+01
      endloop
   endfacet
   facet normal 1.000000e+00 0.000000e+00 0.000000e+00
      outer loop
         vertex 5.949448e+01 2.100000e+01 2.700000e+01
         vertex 5.949448e+01 9.999999e-01 2.800000e+01
         vertex 5.949448e+01 9.999999e-01 2.700000e+01
      endloop
   endfacet
   facet normal 0.000000e+00 0.000000e+00 -1.000000e+00
      outer loop
         vertex 6.549448e+01 2.100000e+01 2.700000e+01
         vertex 6.649448e+01 2.200000e+01 2.700000e+01
         vertex 6.549448e+01 9.999999e-01 2.700000e+01
      endloop
   endfacet
   facet normal -1.000000e+00 0.000000e+00 -0.000000e+00
      outer loop
         vertex 6.549448e+01 2.100000e+01 2.800000e+01
         vertex 6.549448e+01 2.100000e+01 2.700000e+01
         vertex 6.549448e+01 9.999999e-01 2.700000e+01
      endloop
   endfacet
   facet normal -1.000000e+00 0.000000e+00 0.000000e+00
      outer loop
         vertex 6.549448e+01 9.999999e-01 2.800000e+01
         vertex 6.549448e+01 2.100000e+01 2.800000e+01
         vertex 6.549448e+01 9.999999e-01 2.700000e+01
      endloop
   endfacet
   facet normal 0.000000e+00 0.000000e+00 -1.000000e+00
      outer loop
         vertex 5.949448e+01 2.100000e+01 2.800000e+01
         vertex 6.549448e+01 9.999999e-01 2.800000e+01
         vertex 5.949448e+01 9.999999e-01 2.800000e+01
      endloop
   endfacet
   facet normal 1.000000e+00 0.000000e+00 -0.000000e+00
      outer loop
         vertex 5.949448e+01 2.100000e+01 2.700000e+01
         vertex 5.949448e+01 2.100000e+01 2.800000e+01
         vertex 5.949448e+01 9.999999e-01 2.800000e+01
      endloop
   endfacet
   facet normal 0.000000e+00 0.000000e+00 -1.000000e+00
      outer loop
         vertex 5.949448e+01 2.100000e+01 2.800000e+01
         vertex 6.549448e+01 2.100000e+01 2.800000e+01
         vertex 6.549448e+01 9.999999e-01 2.800000e+01
      endloop
   endfacet
   facet normal 0.000000e+00 -1.000000e+00 0.000000e+00
      outer loop
         vertex 6.000001e+00 2.974634e+00 0.000000e+00
         vertex 4.999999e+00 2.974634e+00 9.999983e-01
         vertex 0.000000e+00 2.974634e+00 0.000000e+00
      endloop
   endfacet
   facet normal -0.000000e+00 -1.000000e+00 0.000000e+00
      outer loop
         vertex 4.999999e+00 2.974634e+00 9.999983e-01
         vertex 0.000000e+00 2.974634e+00 9.999983e-01
         vertex 0.000000e+00 2.974634e+00 0.000000e+00
      endloop
   endfacet
   facet normal 0.000000e+00 0.000000e+00 -1.000000e+00
      outer loop
         vertex 0.000000e+00 7.974633e+00 0.000000e+00
         vertex 6.000001e+00 7.974633e+00 0.000000e+00
         vertex 0.000000e+00 2.974634e+00 0.000000e+00
      endloop
   endfacet
   facet normal 0.000000e+00 -0.000000e+00 -1.000000e+00
      outer loop
         vertex 6.000001e+00 7.974633e+00 0.000000e+00
         vertex 6.000001e+00 2.974634e+00 0.000000e+00
         vertex 0.000000e+00 2.974634e+00 0.000000e+00
      endloop
   endfacet
   facet normal -1.000000e+00 0.000000e+00 0.000000e+00
      outer loop
         vertex 0.000000e+00 2.974634e+00 9.999983e-01
         vertex 0.000000e+00 7.974633e+00 0.000000e+00
         vertex 0.000000e+00 2.974634e+00 0.000000e+00
      endloop
   endfacet
   facet normal -0.000000e+00 -1.000000e+00 -0.000000e+00
      outer loop
         vertex 6.000001e+00 2.974634e+00 2.800000e+01
         vertex 4.999999e+00 2.974634e+00 3.000000e+01
         vertex 6.000001e+00 2.974634e+00 0.000000e+00
      endloop
   endfacet
   facet normal 0.000000e+00 -1.000000e+00 0.000000e+00
      outer loop
         vertex 4.999999e+00 2.974634e+00 3.000000e+01
         vertex 4.999999e+00 2.974634e+00 9.999983e-01
         vertex 6.000001e+00 2.974634e+00 0.000000e+00
      endloop
   endfacet
   facet normal 1.000000e+00 0.000000e+00 -0.000000e+00
      outer loop
         vertex 6.000001e+00 7.974633e+00 0.000000e+00
         vertex 6.000001e+00 7.974633e+00 2.800000e+01
         vertex 6.000001e+00 2.974634e+00 0.000000e+00
      endloop
   endfacet
   facet normal 1.000000e+00 0.000000e+00 0.000000e+00
      outer loop
         vertex 6.000001e+00 7.974633e+00 2.800000e+01
         vertex 6.000001e+00 2.974634e+00 2.800000e+01
         vertex 6.000001e+00 2.974634e+00 0.000000e+00
      endloop
   endfacet
   facet normal -0.000000e+00 -1.000000e+00 0.000000e+00
      outer loop
         vertex 1.200000e+02 2.974634e+00 9.999983e-01
         vertex 1.190000e+02 2.974634e+00 2.800000e+01
         vertex 1.190000e+02 2.974634e+00 0.000000e+00
      endloop
   endfacet
   facet normal -0.000000e+00 -1.000000e+00 0.000000e+00
      outer loop
         vertex 1.250000e+02 2.974634e+00 9.999983e-01
         vertex 1.200000e+02 2.974634e+00 9.999983e-01
         vertex 1.190000e+02 2.974634e+00 0.000000e+00
      endloop
   endfacet
   facet normal 0.000000e+00 -1.000000e+00 0.000000e+00
      outer loop
         vertex 1.250000e+02 2.974634e+00 0.000000e+00
         vertex 1.250000e+02 2.974634e+00 9.999983e-01
         vertex 1.190000e+02 2.974634e+00 0.000000e+00
      endloop
   endfacet
   facet normal 0.000000e+00 0.000000e+00 -1.000000e+00
      outer loop
         vertex 1.190000e+02 7.974633e+00 0.000000e+00
         vertex 1.250000e+02 7.974633e+00 0.000000e+00
         vertex 1.190000e+02 2.974634e+00 0.000000e+00
      endloop
   endfacet
   facet normal 0.000000e+00 -0.000000e+00 -1.000000e+00
      outer loop
         vertex 1.250000e+02 7.974633e+00 0.000000e+00
         vertex 1.250000e+02 2.974634e+00 0.000000e+00
         vertex 1.190000e+02 2.974634e+00 0.000000e+00
      endloop
   endfacet
   facet normal -1.000000e+00 0.000000e+00 0.000000e+00
      outer loop
         vertex 1.190000e+02 2.974634e+00 2.800000e+01
         vertex 1.190000e+02 7.974633e+00 0.000000e+00
         vertex 1.190000e+02 2.974634e+00 0.000000e+00
      endloop
   endfacet
   facet normal 1.000000e+00 0.000000e+00 -0.000000e+00
      outer loop
         vertex 1.250000e+02 7.974633e+00 0.000000e+00
         vertex 1.250000e+02 7.974633e+00 9.999983e-01
         vertex 1.250000e+02 2.974634e+00 0.000000e+00
      endloop
   endfacet
   facet normal 1.000000e+00 0.000000e+00 0.000000e+00
      outer loop
         vertex 1.250000e+02 7.974633e+00 9.999983e-01
         vertex 1.250000e+02 2.974634e+00 9.999983e-01
         vertex 1.250000e+02 2.974634e+00 0.000000e+00
      endloop
   endfacet
   facet normal -1.000000e+00 -0.000000e+00 -0.000000e+00
      outer loop
         vertex 0.000000e+00 7.974633e+00 9.999983e-01
         vertex 0.000000e+00 7.974633e+00 0.000000e+00
         vertex 0.000000e+00 2.974634e+00 9.999983e-01
      endloop
   endfacet
   facet normal 0.000000e+00 0.000000e+00 1.000000e+00
      outer loop
         vertex 4.999999e+00 2.974634e+00 9.999983e-01
         vertex 0.000000e+00 7.974633e+00 9.999983e-01
         vertex 0.000000e+00 2.974634e+00 9.999983e-01
      endloop
   endfacet
   facet normal -1.000000e+00 0.000000e+00 0.000000e+00
      outer loop
         vertex 4.999999e+00 2.974634e+00 3.000000e+01
         vertex 4.999999e+00 7.974633e+00 9.999983e-01
         vertex 4.999999e+00 2.974634e+00 9.999983e-01
      endloop
   endfacet
   facet normal 0.000000e+00 0.000000e+00 1.000000e+00
      outer loop
         vertex 4.999999e+00 7.974633e+00 9.999983e-01
         vertex 0.000000e+00 7.974633e+00 9.999983e-01
         vertex 4.999999e+00 2.974634e+00 9.999983e-01
      endloop
   endfacet
   facet normal 0.000000e+00 -1.000000e+00 -0.000000e+00
      outer loop
         vertex 1.200000e+02 2.974634e+00 3.000000e+01
         vertex 1.190000e+02 2.974634e+00 2.800000e+01
         vertex 1.200000e+02 2.974634e+00 9.999983e-01
      endloop
   endfacet
   facet normal 1.000000e+00 0.000000e+00 -0.000000e+00
      outer loop
         vertex 1.200000e+02 7.974633e+00 9.999983e-01
         vertex 1.200000e+02 7.974633e+00 3.000000e+01
         vertex 1.200000e+02 2.974634e+00 9.999983e-01
      endloop
   endfacet
   facet normal 1.000000e+00 0.000000e+00 0.000000e+00
      outer loop
         vertex 1.200000e+02 7.974633e+00 3.000000e+01
         vertex 1.200000e+02 2.974634e+00 3.000000e+01
         vertex 1.200000e+02 2.974634e+00 9.999983e-01
      endloop
   endfacet
   facet normal 0.000000e+00 0.000000e+00 1.000000e+00
      outer loop
         vertex 1.250000e+02 2.974634e+00 9.999983e-01
         vertex 1.200000e+02 7.974633e+00 9.999983e-01
         vertex 1.200000e+02 2.974634e+00 9.999983e-01
      endloop
   endfacet
   facet normal 0.000000e+00 0.000000e+00 1.000000e+00
      outer loop
         vertex 1.250000e+02 7.974633e+00 9.999983e-01
         vertex 1.200000e+02 7.974633e+00 9.999983e-01
         vertex 1.250000e+02 2.974634e+00 9.999983e-01
      endloop
   endfacet
   facet normal 0.000000e+00 -1.000000e+00 0.000000e+00
      outer loop
         vertex 5.849448e+01 2.974634e+00 2.800000e+01
         vertex 5.849448e+01 2.974634e+00 3.000000e+01
         vertex 6.000001e+00 2.974634e+00 2.800000e+01
      endloop
   endfacet
   facet normal -0.000000e+00 -1.000000e+00 0.000000e+00
      outer loop
         vertex 5.849448e+01 2.974634e+00 3.000000e+01
         vertex 4.999999e+00 2.974634e+00 3.000000e+01
         vertex 6.000001e+00 2.974634e+00 2.800000e+01
      endloop
   endfacet
   facet normal 0.000000e+00 0.000000e+00 -1.000000e+00
      outer loop
         vertex 6.000001e+00 7.974633e+00 2.800000e+01
         vertex 5.849448e+01 2.974634e+00 2.800000e+01
         vertex 6.000001e+00 2.974634e+00 2.800000e+01
      endloop
   endfacet
   facet normal 0.000000e+00 0.000000e+00 -1.000000e+00
      outer loop
         vertex 6.000001e+00 7.974633e+00 2.800000e+01
         vertex 5.849448e+01 7.974633e+00 2.800000e+01
         vertex 5.849448e+01 2.974634e+00 2.800000e+01
      endloop
   endfacet
   facet normal 2.995853e-35 -1.000000e+00 -5.343156e-34
      outer loop
         vertex 1.200000e+02 2.974634e+00 3.000000e+01
         vertex 6.649448e+01 2.974634e+00 3.000000e+01
         vertex 6.649448e+01 2.974634e+00 2.800000e+01
      endloop
   endfacet
   facet normal 1.017637e-35 -1.000000e+00 -5.088195e-36
      outer loop
         vertex 1.190000e+02 2.974634e+00 2.800000e+01
         vertex 1.200000e+02 2.974634e+00 3.000000e+01
         vertex 6.649448e+01 2.974634e+00 2.800000e+01
      endloop
   endfacet
   facet normal 0.000000e+00 0.000000e+00 -1.000000e+00
      outer loop
         vertex 6.649448e+01 7.974633e+00 2.800000e+01
         vertex 1.190000e+02 2.974634e+00 2.800000e+01
         vertex 6.649448e+01 2.974634e+00 2.800000e+01
      endloop
   endfacet
   facet normal 0.000000e+00 0.000000e+00 -1.000000e+00
      outer loop
         vertex 6.649448e+01 7.974633e+00 2.800000e+01
         vertex 1.190000e+02 7.974633e+00 2.800000e+01
         vertex 1.190000e+02 2.974634e+00 2.800000e+01
      endloop
   endfacet
   facet normal -1.000000e+00 -0.000000e+00 -0.000000e+00
      outer loop
         vertex 1.190000e+02 7.974633e+00 2.800000e+01
         vertex 1.190000e+02 7.974633e+00 0.000000e+00
         vertex 1.190000e+02 2.974634e+00 2.800000e+01
      endloop
   endfacet
   facet normal -1.000000e+00 -0.000000e+00 -0.000000e+00
      outer loop
         vertex 4.999999e+00 7.974633e+00 3.000000e+01
         vertex 4.999999e+00 7.974633e+00 9.999983e-01
         vertex 4.999999e+00 2.974634e+00 3.000000e+01
      endloop
   endfacet
   facet normal 0.000000e+00 -0.000000e+00 1.000000e+00
      outer loop
         vertex 5.849448e+01 2.974634e+00 3.000000e+01
         vertex 5.849448e+01 7.974633e+00 3.000000e+01
         vertex 4.999999e+00 2.974634e+00 3.000000e+01
      endloop
   endfacet
   facet normal 0.000000e+00 0.000000e+00 1.000000e+00
      outer loop
         vertex 5.849448e+01 7.974633e+00 3.000000e+01
         vertex 4.999999e+00 7.974633e+00 3.000000e+01
         vertex 4.999999e+00 2.974634e+00 3.000000e+01
      endloop
   endfacet
   facet normal 0.000000e+00 -0.000000e+00 1.000000e+00
      outer loop
         vertex 1.200000e+02 2.974634e+00 3.000000e+01
         vertex 1.200000e+02 7.974633e+00 3.000000e+01
         vertex 6.649448e+01 2.974634e+00 3.000000e+01
      endloop
   endfacet
   facet normal 0.000000e+00 0.000000e+00 1.000000e+00
      outer loop
         vertex 1.200000e+02 7.974633e+00 3.000000e+01
         vertex 6.649448e+01 7.974633e+00 3.000000e+01
         vertex 6.649448e+01 2.974634e+00 3.000000e+01
      endloop
   endfacet
   facet normal 0.000000e+00 0.000000e+00 1.000000e+00
      outer loop
         vertex 6.649448e+01 7.974633e+00 3.000000e+01
         vertex 5.849448e+01 7.974633e+00 3.000000e+01
         vertex 6.649448e+01 2.974634e+00 3.000000e+01
      endloop
   endfacet
   facet normal 0.000000e+00 1.000000e+00 0.000000e+00
      outer loop
         vertex 0.000000e+00 7.974633e+00 9.999983e-01
         vertex 6.000001e+00 7.974633e+00 0.000000e+00
         vertex 0.000000e+00 7.974633e+00 0.000000e+00
      endloop
   endfacet
   facet normal -0.000000e+00 1.000000e+00 0.000000e+00
      outer loop
         vertex 4.999999e+00 7.974633e+00 9.999983e-01
         vertex 6.000001e+00 7.974633e+00 2.800000e+01
         vertex 6.000001e+00 7.974633e+00 0.000000e+00
      endloop
   endfacet
   facet normal -0.000000e+00 1.000000e+00 0.000000e+00
      outer loop
         vertex 0.000000e+00 7.974633e+00 9.999983e-01
         vertex 4.999999e+00 7.974633e+00 9.999983e-01
         vertex 6.000001e+00 7.974633e+00 0.000000e+00
      endloop
   endfacet
   facet normal -0.000000e+00 1.000000e+00 0.000000e+00
      outer loop
         vertex 1.190000e+02 7.974633e+00 2.800000e+01
         vertex 1.200000e+02 7.974633e+00 3.000000e+01
         vertex 1.190000e+02 7.974633e+00 0.000000e+00
      endloop
   endfacet
   facet normal 0.000000e+00 1.000000e+00 0.000000e+00
      outer loop
         vertex 1.200000e+02 7.974633e+00 3.000000e+01
         vertex 1.200000e+02 7.974633e+00 9.999983e-01
         vertex 1.190000e+02 7.974633e+00 0.000000e+00
      endloop
   endfacet
   facet normal 0.000000e+00 1.000000e+00 0.000000e+00
      outer loop
         vertex 1.200000e+02 7.974633e+00 9.999983e-01
         vertex 1.250000e+02 7.974633e+00 0.000000e+00
         vertex 1.190000e+02 7.974633e+00 0.000000e+00
      endloop
   endfacet
   facet normal -0.000000e+00 1.000000e+00 0.000000e+00
      outer loop
         vertex 1.200000e+02 7.974633e+00 9.999983e-01
         vertex 1.250000e+02 7.974633e+00 9.999983e-01
         vertex 1.250000e+02 7.974633e+00 0.000000e+00
      endloop
   endfacet
   facet normal 0.000000e+00 1.000000e+00 0.000000e+00
      outer loop
         vertex 4.999999e+00 7.974633e+00 3.000000e+01
         vertex 6.000001e+00 7.974633e+00 2.800000e+01
         vertex 4.999999e+00 7.974633e+00 9.999983e-01
      endloop
   endfacet
   facet normal 0.000000e+00 1.000000e+00 0.000000e+00
      outer loop
         vertex 4.999999e+00 7.974633e+00 3.000000e+01
         vertex 5.849448e+01 7.974633e+00 2.800000e+01
         vertex 6.000001e+00 7.974633e+00 2.800000e+01
      endloop
   endfacet
   facet normal -0.000000e+00 1.000000e+00 0.000000e+00
      outer loop
         vertex 4.999999e+00 7.974633e+00 3.000000e+01
         vertex 5.849448e+01 7.974633e+00 3.000000e+01
         vertex 5.849448e+01 7.974633e+00 2.800000e+01
      endloop
   endfacet
   facet normal -1.000000e+00 0.000000e+00 0.000000e+00
      outer loop
         vertex 5.849448e+01 7.974633e+00 3.000000e+01
         vertex 5.849448e+01 2.200000e+01 3.000000e+01
         vertex 5.849448e+01 7.974633e+00 2.800000e+01
      endloop
   endfacet
   facet normal -1.000000e+00 0.000000e+00 -0.000000e+00
      outer loop
         vertex 5.849448e+01 2.200000e+01 3.000000e+01
         vertex 5.849448e+01 2.200000e+01 2.700000e+01
         vertex 5.849448e+01 7.974633e+00 2.800000e+01
      endloop
   endfacet
   facet normal 0.000000e+00 1.000000e+00 0.000000e+00
      outer loop
         vertex 6.649448e+01 7.974633e+00 3.000000e+01
         vertex 1.190000e+02 7.974633e+00 2.800000e+01
         vertex 6.649448e+01 7.974633e+00 2.800000e+01
      endloop
   endfacet
   facet normal 1.000000e+00 0.000000e+00 0.000000e+00
      outer loop
         vertex 6.649448e+01 2.200000e+01 2.700000e+01
         vertex 6.649448e+01 7.974633e+00 3.000000e+01
         vertex 6.649448e+01 7.974633e+00 2.800000e+01
      endloop
   endfacet
   facet normal -0.000000e+00 1.000000e+00 0.000000e+00
      outer loop
         vertex 6.649448e+01 7.974633e+00 3.000000e+01
         vertex 1.200000e+02 7.974633e+00 3.000000e+01
         vertex 1.190000e+02 7.974633e+00 2.800000e+01
      endloop
   endfacet
   facet normal 0.000000e+00 0.000000e+00 1.000000e+00
      outer loop
         vertex 6.649448e+01 7.974633e+00 3.000000e+01
         vertex 5.849448e+01 2.200000e+01 3.000000e+01
         vertex 5.849448e+01 7.974633e+00 3.000000e+01
      endloop
   endfacet
   facet normal 0.000000e+00 0.000000e+00 1.000000e+00
      outer loop
         vertex 6.649448e+01 2.200000e+01 3.000000e+01
         vertex 5.849448e+01 2.200000e+01 3.000000e+01
         vertex 6.649448e+01 7.974633e+00 3.000000e+01
      endloop
   endfacet
   facet normal 1.000000e+00 0.000000e+00 -0.000000e+00
      outer loop
         vertex 6.649448e+01 2.200000e+01 2.700000e+01
         vertex 6.649448e+01 2.200000e+01 3.000000e+01
         vertex 6.649448e+01 7.974633e+00 3.000000e+01
      endloop
   endfacet
   facet normal 0.000000e+00 0.000000e+00 -1.000000e+00
      outer loop
         vertex 5.849448e+01 2.200000e+01 2.700000e+01
         vertex 6.549448e+01 2.100000e+01 2.700000e+01
         vertex 5.949448e+01 2.100000e+01 2.700000e+01
      endloop
   endfacet
   facet normal 0.000000e+00 -1.000000e+00 0.000000e+00
      outer loop
         vertex 6.549448e+01 2.100000e+01 2.700000e+01
         vertex 5.949448e+01 2.100000e+01 2.800000e+01
         vertex 5.949448e+01 2.100000e+01 2.700000e+01
      endloop
   endfacet
   facet normal 0.000000e+00 0.000000e+00 -1.000000e+00
      outer loop
         vertex 5.849448e+01 2.200000e+01 2.700000e+01
         vertex 6.649448e+01 2.200000e+01 2.700000e+01
         vertex 6.549448e+01 2.100000e+01 2.700000e+01
      endloop
   endfacet
   facet normal -0.000000e+00 -1.000000e+00 -0.000000e+00
      outer loop
         vertex 6.549448e+01 2.100000e+01 2.800000e+01
         vertex 5.949448e+01 2.100000e+01 2.800000e+01
         vertex 6.549448e+01 2.100000e+01 2.700000e+01
      endloop
   endfacet
   facet normal 0.000000e+00 1.000000e+00 0.000000e+00
      outer loop
         vertex 5.849448e+01 2.200000e+01 3.000000e+01
         vertex 6.649448e+01 2.200000e+01 2.700000e+01
         vertex 5.849448e+01 2.200000e+01 2.700000e+01
      endloop
   endfacet
   facet normal -0.000000e+00 1.000000e+00 0.000000e+00
      outer loop
         vertex 5.849448e+01 2.200000e+01 3.000000e+01
         vertex 6.649448e+01 2.200000e+01 3.000000e+01
         vertex 6.649448e+01 2.200000e+01 2.700000e+01
      endloop
   endfacet
endsolid