solid ServoSupport
   facet normal 0.000000e+00 1.000000e+00 0.000000e+00
      outer loop
         vertex 7.000000e+01 8.500000e+00 2.800000e+01
         vertex 7.000000e+01 8.500000e+00 3.000000e+01
         vertex 1.190000e+02 8.500000e+00 2.800000e+01
      endloop
   endfacet
   facet normal 0.000000e+00 1.000000e+00 -0.000000e+00
      outer loop
         vertex 1.190000e+02 8.500000e+00 2.800000e+01
         vertex 7.000000e+01 8.500000e+00 3.000000e+01
         vertex 1.200000e+02 8.500000e+00 3.000000e+01
      endloop
   endfacet
   facet normal -0.000000e+00 1.000000e+00 0.000000e+00
      outer loop
         vertex 1.190000e+02 8.500000e+00 2.800000e+01
         vertex 1.200000e+02 8.500000e+00 3.000000e+01
         vertex 1.190000e+02 8.500000e+00 0.000000e+00
      endloop
   endfacet
   facet normal 0.000000e+00 1.000000e+00 0.000000e+00
      outer loop
         vertex 1.190000e+02 8.500000e+00 0.000000e+00
         vertex 1.200000e+02 8.500000e+00 3.000000e+01
         vertex 1.200000e+02 8.500000e+00 9.999983e-01
      endloop
   endfacet
   facet normal 0.000000e+00 1.000000e+00 0.000000e+00
      outer loop
         vertex 1.190000e+02 8.500000e+00 0.000000e+00
         vertex 1.200000e+02 8.500000e+00 9.999983e-01
         vertex 1.250000e+02 8.500000e+00 0.000000e+00
      endloop
   endfacet
   facet normal 0.000000e+00 1.000000e+00 -0.000000e+00
      outer loop
         vertex 1.250000e+02 8.500000e+00 0.000000e+00
         vertex 1.200000e+02 8.500000e+00 9.999983e-01
         vertex 1.250000e+02 8.500000e+00 9.999983e-01
      endloop
   endfacet
   facet normal 0.000000e+00 1.000000e+00 0.000000e+00
      outer loop
         vertex 5.500000e+01 8.500000e+00 3.000000e+01
         vertex 5.500000e+01 8.500000e+00 2.800000e+01
         vertex 4.999999e+00 8.500000e+00 3.000000e+01
      endloop
   endfacet
   facet normal 0.000000e+00 1.000000e+00 0.000000e+00
      outer loop
         vertex 4.999999e+00 8.500000e+00 3.000000e+01
         vertex 5.500000e+01 8.500000e+00 2.800000e+01
         vertex 6.000001e+00 8.500000e+00 2.800000e+01
      endloop
   endfacet
   facet normal 0.000000e+00 1.000000e+00 0.000000e+00
      outer loop
         vertex 4.999999e+00 8.500000e+00 3.000000e+01
         vertex 6.000001e+00 8.500000e+00 2.800000e+01
         vertex 4.999999e+00 8.500000e+00 9.999983e-01
      endloop
   endfacet
   facet normal -0.000000e+00 1.000000e+00 0.000000e+00
      outer loop
         vertex 4.999999e+00 8.500000e+00 9.999983e-01
         vertex 6.000001e+00 8.500000e+00 2.800000e+01
         vertex 6.000001e+00 8.500000e+00 0.000000e+00
      endloop
   endfacet
   facet normal 0.000000e+00 1.000000e+00 0.000000e+00
      outer loop
         vertex 4.999999e+00 8.500000e+00 9.999983e-01
         vertex 6.000001e+00 8.500000e+00 0.000000e+00
         vertex 0.000000e+00 8.500000e+00 9.999983e-01
      endloop
   endfacet
   facet normal 0.000000e+00 1.000000e+00 0.000000e+00
      outer loop
         vertex 0.000000e+00 8.500000e+00 9.999983e-01
         vertex 6.000001e+00 8.500000e+00 0.000000e+00
         vertex 0.000000e+00 8.500000e+00 0.000000e+00
      endloop
   endfacet
   facet normal 0.000000e+00 -1.000000e+00 0.000000e+00
      outer loop
         vertex 7.000000e+01 3.500000e+00 3.000000e+01
         vertex 7.000000e+01 3.500000e+00 2.800000e+01
         vertex 1.200000e+02 3.500000e+00 3.000000e+01
      endloop
   endfacet
   facet normal 0.000000e+00 -1.000000e+00 0.000000e+00
      outer loop
         vertex 1.200000e+02 3.500000e+00 3.000000e+01
         vertex 7.000000e+01 3.500000e+00 2.800000e+01
         vertex 1.190000e+02 3.500000e+00 2.800000e+01
      endloop
   endfacet
   facet normal 0.000000e+00 -1.000000e+00 -0.000000e+00
      outer loop
         vertex 1.200000e+02 3.500000e+00 3.000000e+01
         vertex 1.190000e+02 3.500000e+00 2.800000e+01
         vertex 1.200000e+02 3.500000e+00 9.999983e-01
      endloop
   endfacet
   facet normal -0.000000e+00 -1.000000e+00 0.000000e+00
      outer loop
         vertex 1.200000e+02 3.500000e+00 9.999983e-01
         vertex 1.190000e+02 3.500000e+00 2.800000e+01
         vertex 1.190000e+02 3.500000e+00 0.000000e+00
      endloop
   endfacet
   facet normal 0.000000e+00 -1.000000e+00 -0.000000e+00
      outer loop
         vertex 1.200000e+02 3.500000e+00 9.999983e-01
         vertex 1.190000e+02 3.500000e+00 0.000000e+00
         vertex 1.250000e+02 3.500000e+00 9.999983e-01
      endloop
   endfacet
   facet normal 0.000000e+00 -1.000000e+00 -0.000000e+00
      outer loop
         vertex 1.250000e+02 3.500000e+00 9.999983e-01
         vertex 1.190000e+02 3.500000e+00 0.000000e+00
         vertex 1.250000e+02 3.500000e+00 0.000000e+00
      endloop
   endfacet
   facet normal 0.000000e+00 -1.000000e+00 0.000000e+00
      outer loop
         vertex 5.500000e+01 3.500000e+00 2.800000e+01
         vertex 5.500000e+01 3.500000e+00 3.000000e+01
         vertex 6.000001e+00 3.500000e+00 2.800000e+01
      endloop
   endfacet
   facet normal 0.000000e+00 -1.000000e+00 0.000000e+00
      outer loop
         vertex 6.000001e+00 3.500000e+00 2.800000e+01
         vertex 5.500000e+01 3.500000e+00 3.000000e+01
         vertex 4.999999e+00 3.500000e+00 3.000000e+01
      endloop
   endfacet
   facet normal -0.000000e+00 -1.000000e+00 -0.000000e+00
      outer loop
         vertex 6.000001e+00 3.500000e+00 2.800000e+01
         vertex 4.999999e+00 3.500000e+00 3.000000e+01
         vertex 6.000001e+00 3.500000e+00 0.000000e+00
      endloop
   endfacet
   facet normal 0.000000e+00 -1.000000e+00 0.000000e+00
      outer loop
         vertex 6.000001e+00 3.500000e+00 0.000000e+00
         vertex 4.999999e+00 3.500000e+00 3.000000e+01
         vertex 4.999999e+00 3.500000e+00 9.999983e-01
      endloop
   endfacet
   facet normal 0.000000e+00 -1.000000e+00 0.000000e+00
      outer loop
         vertex 6.000001e+00 3.500000e+00 0.000000e+00
         vertex 4.999999e+00 3.500000e+00 9.999983e-01
         vertex 0.000000e+00 3.500000e+00 0.000000e+00
      endloop
   endfacet
   facet normal 0.000000e+00 -1.000000e+00 0.000000e+00
      outer loop
         vertex 0.000000e+00 3.500000e+00 0.000000e+00
         vertex 4.999999e+00 3.500000e+00 9.999983e-01
         vertex 0.000000e+00 3.500000e+00 9.999983e-01
      endloop
   endfacet
   facet normal -0.000000e+00 -0.000000e+00 -1.000000e+00
      outer loop
         vertex 1.190000e+02 8.500000e+00 2.800000e+01
         vertex 1.190000e+02 3.500000e+00 2.800000e+01
         vertex 7.000000e+01 8.500000e+00 2.800000e+01
      endloop
   endfacet
   facet normal 0.000000e+00 0.000000e+00 -1.000000e+00
      outer loop
         vertex 7.000000e+01 8.500000e+00 2.800000e+01
         vertex 1.190000e+02 3.500000e+00 2.800000e+01
         vertex 7.000000e+01 3.500000e+00 2.800000e+01
      endloop
   endfacet
   facet normal 0.000000e+00 0.000000e+00 -1.000000e+00
      outer loop
         vertex 6.000001e+00 3.500000e+00 2.800000e+01
         vertex 6.000001e+00 8.500000e+00 2.800000e+01
         vertex 5.500000e+01 3.500000e+00 2.800000e+01
      endloop
   endfacet
   facet normal 0.000000e+00 0.000000e+00 -1.000000e+00
      outer loop
         vertex 5.500000e+01 3.500000e+00 2.800000e+01
         vertex 6.000001e+00 8.500000e+00 2.800000e+01
         vertex 5.500000e+01 8.500000e+00 2.800000e+01
      endloop
   endfacet
   facet normal -1.000000e+00 -0.000000e+00 -0.000000e+00
      outer loop
         vertex 4.999999e+00 8.500000e+00 3.000000e+01
         vertex 4.999999e+00 8.500000e+00 9.999983e-01
         vertex 4.999999e+00 3.500000e+00 3.000000e+01
      endloop
   endfacet
   facet normal -1.000000e+00 0.000000e+00 0.000000e+00
      outer loop
         vertex 4.999999e+00 3.500000e+00 3.000000e+01
         vertex 4.999999e+00 8.500000e+00 9.999983e-01
         vertex 4.999999e+00 3.500000e+00 9.999983e-01
      endloop
   endfacet
   facet normal 0.000000e+00 0.000000e+00 1.000000e+00
      outer loop
         vertex 5.500000e+01 3.500000e+00 3.000000e+01
         vertex 5.500000e+01 0.000000e+00 3.000000e+01
         vertex 7.000000e+01 0.000000e+00 3.000000e+01
      endloop
   endfacet
   facet normal 0.000000e+00 -0.000000e+00 1.000000e+00
      outer loop
         vertex 7.000000e+01 8.500000e+00 3.000000e+01
         vertex 7.000000e+01 2.500000e+01 3.000000e+01
         vertex 5.500000e+01 2.500000e+01 3.000000e+01
      endloop
   endfacet
   facet normal 0.000000e+00 0.000000e+00 1.000000e+00
      outer loop
         vertex 5.500000e+01 8.500000e+00 3.000000e+01
         vertex 4.999999e+00 8.500000e+00 3.000000e+01
         vertex 4.999999e+00 3.500000e+00 3.000000e+01
      endloop
   endfacet
   facet normal 0.000000e+00 0.000000e+00 1.000000e+00
      outer loop
         vertex 7.000000e+01 3.500000e+00 3.000000e+01
         vertex 1.200000e+02 3.500000e+00 3.000000e+01
         vertex 1.200000e+02 8.500000e+00 3.000000e+01
      endloop
   endfacet
   facet normal 0.000000e+00 0.000000e+00 1.000000e+00
      outer loop
         vertex 1.200000e+02 8.500000e+00 3.000000e+01
         vertex 7.000000e+01 8.500000e+00 3.000000e+01
         vertex 7.000000e+01 3.500000e+00 3.000000e+01
      endloop
   endfacet
   facet normal 0.000000e+00 -0.000000e+00 1.000000e+00
      outer loop
         vertex 7.000000e+01 3.500000e+00 3.000000e+01
         vertex 7.000000e+01 8.500000e+00 3.000000e+01
         vertex 5.500000e+01 2.500000e+01 3.000000e+01
      endloop
   endfacet
   facet normal 0.000000e+00 0.000000e+00 1.000000e+00
      outer loop
         vertex 7.000000e+01 3.500000e+00 3.000000e+01
         vertex 5.500000e+01 2.500000e+01 3.000000e+01
         vertex 7.000000e+01 0.000000e+00 3.000000e+01
      endloop
   endfacet
   facet normal 0.000000e+00 0.000000e+00 1.000000e+00
      outer loop
         vertex 7.000000e+01 0.000000e+00 3.000000e+01
         vertex 5.500000e+01 2.500000e+01 3.000000e+01
         vertex 5.500000e+01 8.500000e+00 3.000000e+01
      endloop
   endfacet
   facet normal 0.000000e+00 0.000000e+00 1.000000e+00
      outer loop
         vertex 7.000000e+01 0.000000e+00 3.000000e+01
         vertex 5.500000e+01 8.500000e+00 3.000000e+01
         vertex 5.500000e+01 3.500000e+00 3.000000e+01
      endloop
   endfacet
   facet normal 0.000000e+00 -0.000000e+00 1.000000e+00
      outer loop
         vertex 5.500000e+01 3.500000e+00 3.000000e+01
         vertex 5.500000e+01 8.500000e+00 3.000000e+01
         vertex 4.999999e+00 3.500000e+00 3.000000e+01
      endloop
   endfacet
   facet normal 1.000000e+00 0.000000e+00 -0.000000e+00
      outer loop
         vertex 1.200000e+02 8.500000e+00 9.999983e-01
         vertex 1.200000e+02 8.500000e+00 3.000000e+01
         vertex 1.200000e+02 3.500000e+00 9.999983e-01
      endloop
   endfacet
   facet normal 1.000000e+00 0.000000e+00 0.000000e+00
      outer loop
         vertex 1.200000e+02 3.500000e+00 9.999983e-01
         vertex 1.200000e+02 8.500000e+00 3.000000e+01
         vertex 1.200000e+02 3.500000e+00 3.000000e+01
      endloop
   endfacet
   facet normal 0.000000e+00 0.000000e+00 1.000000e+00
      outer loop
         vertex 1.250000e+02 8.500000e+00 9.999983e-01
         vertex 1.200000e+02 8.500000e+00 9.999983e-01
         vertex 1.250000e+02 3.500000e+00 9.999983e-01
      endloop
   endfacet
   facet normal 0.000000e+00 0.000000e+00 1.000000e+00
      outer loop
         vertex 1.250000e+02 3.500000e+00 9.999983e-01
         vertex 1.200000e+02 8.500000e+00 9.999983e-01
         vertex 1.200000e+02 3.500000e+00 9.999983e-01
      endloop
   endfacet
   facet normal 1.000000e+00 0.000000e+00 -0.000000e+00
      outer loop
         vertex 1.250000e+02 8.500000e+00 0.000000e+00
         vertex 1.250000e+02 8.500000e+00 9.999983e-01
         vertex 1.250000e+02 3.500000e+00 0.000000e+00
      endloop
   endfacet
   facet normal 1.000000e+00 0.000000e+00 0.000000e+00
      outer loop
         vertex 1.250000e+02 3.500000e+00 0.000000e+00
         vertex 1.250000e+02 8.500000e+00 9.999983e-01
         vertex 1.250000e+02 3.500000e+00 9.999983e-01
      endloop
   endfacet
   facet normal 0.000000e+00 0.000000e+00 -1.000000e+00
      outer loop
         vertex 1.190000e+02 8.500000e+00 0.000000e+00
         vertex 1.250000e+02 8.500000e+00 0.000000e+00
         vertex 1.190000e+02 3.500000e+00 0.000000e+00
      endloop
   endfacet
   facet normal 0.000000e+00 0.000000e+00 -1.000000e+00
      outer loop
         vertex 1.190000e+02 3.500000e+00 0.000000e+00
         vertex 1.250000e+02 8.500000e+00 0.000000e+00
         vertex 1.250000e+02 3.500000e+00 0.000000e+00
      endloop
   endfacet
   facet normal -1.000000e+00 -0.000000e+00 -0.000000e+00
      outer loop
         vertex 1.190000e+02 8.500000e+00 2.800000e+01
         vertex 1.190000e+02 8.500000e+00 0.000000e+00
         vertex 1.190000e+02 3.500000e+00 2.800000e+01
      endloop
   endfacet
   facet normal -1.000000e+00 0.000000e+00 0.000000e+00
      outer loop
         vertex 1.190000e+02 3.500000e+00 2.800000e+01
         vertex 1.190000e+02 8.500000e+00 0.000000e+00
         vertex 1.190000e+02 3.500000e+00 0.000000e+00
      endloop
   endfacet
   facet normal -0.000000e+00 -0.000000e+00 -1.000000e+00
      outer loop
         vertex 6.900000e+01 2.400000e+01 2.800000e+01
         vertex 6.900000e+01 1.000000e+00 2.800000e+01
         vertex 5.600000e+01 2.400000e+01 2.800000e+01
      endloop
   endfacet
   facet normal 0.000000e+00 0.000000e+00 -1.000000e+00
      outer loop
         vertex 5.600000e+01 2.400000e+01 2.800000e+01
         vertex 6.900000e+01 1.000000e+00 2.800000e+01
         vertex 5.600000e+01 1.000000e+00 2.800000e+01
      endloop
   endfacet
   facet normal 1.000000e+00 0.000000e+00 -0.000000e+00
      outer loop
         vertex 6.000001e+00 8.500000e+00 0.000000e+00
         vertex 6.000001e+00 8.500000e+00 2.800000e+01
         vertex 6.000001e+00 3.500000e+00 0.000000e+00
      endloop
   endfacet
   facet normal 1.000000e+00 0.000000e+00 0.000000e+00
      outer loop
         vertex 6.000001e+00 3.500000e+00 0.000000e+00
         vertex 6.000001e+00 8.500000e+00 2.800000e+01
         vertex 6.000001e+00 3.500000e+00 2.800000e+01
      endloop
   endfacet
   facet normal 0.000000e+00 0.000000e+00 -1.000000e+00
      outer loop
         vertex 0.000000e+00 8.500000e+00 0.000000e+00
         vertex 6.000001e+00 8.500000e+00 0.000000e+00
         vertex 0.000000e+00 3.500000e+00 0.000000e+00
      endloop
   endfacet
   facet normal 0.000000e+00 0.000000e+00 -1.000000e+00
      outer loop
         vertex 0.000000e+00 3.500000e+00 0.000000e+00
         vertex 6.000001e+00 8.500000e+00 0.000000e+00
         vertex 6.000001e+00 3.500000e+00 0.000000e+00
      endloop
   endfacet
   facet normal -1.000000e+00 -0.000000e+00 -0.000000e+00
      outer loop
         vertex 0.000000e+00 8.500000e+00 9.999983e-01
         vertex 0.000000e+00 8.500000e+00 0.000000e+00
         vertex 0.000000e+00 3.500000e+00 9.999983e-01
      endloop
   endfacet
   facet normal -1.000000e+00 0.000000e+00 0.000000e+00
      outer loop
         vertex 0.000000e+00 3.500000e+00 9.999983e-01
         vertex 0.000000e+00 8.500000e+00 0.000000e+00
         vertex 0.000000e+00 3.500000e+00 0.000000e+00
      endloop
   endfacet
   facet normal 0.000000e+00 0.000000e+00 1.000000e+00
      outer loop
         vertex 4.999999e+00 8.500000e+00 9.999983e-01
         vertex 0.000000e+00 8.500000e+00 9.999983e-01
         vertex 4.999999e+00 3.500000e+00 9.999983e-01
      endloop
   endfacet
   facet normal 0.000000e+00 0.000000e+00 1.000000e+00
      outer loop
         vertex 4.999999e+00 3.500000e+00 9.999983e-01
         vertex 0.000000e+00 8.500000e+00 9.999983e-01
         vertex 0.000000e+00 3.500000e+00 9.999983e-01
      endloop
   endfacet
   facet normal 0.000000e+00 0.000000e+00 -1.000000e+00
      outer loop
         vertex 6.900000e+01 2.400000e+01 2.700000e+01
         vertex 7.000000e+01 2.500000e+01 2.700000e+01
         vertex 6.900000e+01 1.000000e+00 2.700000e+01
      endloop
   endfacet
   facet normal 0.000000e+00 0.000000e+00 -1.000000e+00
      outer loop
         vertex 6.900000e+01 1.000000e+00 2.700000e+01
         vertex 7.000000e+01 2.500000e+01 2.700000e+01
         vertex 7.000000e+01 0.000000e+00 2.700000e+01
      endloop
   endfacet
   facet normal -0.000000e+00 -0.000000e+00 -1.000000e+00
      outer loop
         vertex 6.900000e+01 1.000000e+00 2.700000e+01
         vertex 7.000000e+01 0.000000e+00 2.700000e+01
         vertex 5.600000e+01 1.000000e+00 2.700000e+01
      endloop
   endfacet
   facet normal 0.000000e+00 -0.000000e+00 -1.000000e+00
      outer loop
         vertex 5.600000e+01 1.000000e+00 2.700000e+01
         vertex 7.000000e+01 0.000000e+00 2.700000e+01
         vertex 5.500000e+01 0.000000e+00 2.700000e+01
      endloop
   endfacet
   facet normal -0.000000e+00 0.000000e+00 -1.000000e+00
      outer loop
         vertex 5.600000e+01 1.000000e+00 2.700000e+01
         vertex 5.500000e+01 0.000000e+00 2.700000e+01
         vertex 5.600000e+01 2.400000e+01 2.700000e+01
      endloop
   endfacet
   facet normal -0.000000e+00 0.000000e+00 -1.000000e+00
      outer loop
         vertex 5.600000e+01 2.400000e+01 2.700000e+01
         vertex 5.500000e+01 0.000000e+00 2.700000e+01
         vertex 5.500000e+01 2.500000e+01 2.700000e+01
      endloop
   endfacet
   facet normal 0.000000e+00 0.000000e+00 -1.000000e+00
      outer loop
         vertex 5.600000e+01 2.400000e+01 2.700000e+01
         vertex 5.500000e+01 2.500000e+01 2.700000e+01
         vertex 6.900000e+01 2.400000e+01 2.700000e+01
      endloop
   endfacet
   facet normal 0.000000e+00 0.000000e+00 -1.000000e+00
      outer loop
         vertex 6.900000e+01 2.400000e+01 2.700000e+01
         vertex 5.500000e+01 2.500000e+01 2.700000e+01
         vertex 7.000000e+01 2.500000e+01 2.700000e+01
      endloop
   endfacet
   facet normal 0.000000e+00 1.000000e+00 0.000000e+00
      outer loop
         vertex 7.000000e+01 2.500000e+01 3.000000e+01
         vertex 7.000000e+01 2.500000e+01 2.700000e+01
         vertex 5.500000e+01 2.500000e+01 3.000000e+01
      endloop
   endfacet
   facet normal 0.000000e+00 1.000000e+00 0.000000e+00
      outer loop
         vertex 5.500000e+01 2.500000e+01 3.000000e+01
         vertex 7.000000e+01 2.500000e+01 2.700000e+01
         vertex 5.500000e+01 2.500000e+01 2.700000e+01
      endloop
   endfacet
   facet normal 1.000000e+00 0.000000e+00 0.000000e+00
      outer loop
         vertex 7.000000e+01 3.500000e+00 3.000000e+01
         vertex 7.000000e+01 0.000000e+00 3.000000e+01
         vertex 7.000000e+01 3.500000e+00 2.800000e+01
      endloop
   endfacet
   facet normal 1.000000e+00 0.000000e+00 0.000000e+00
      outer loop
         vertex 7.000000e+01 3.500000e+00 2.800000e+01
         vertex 7.000000e+01 0.000000e+00 3.000000e+01
         vertex 7.000000e+01 0.000000e+00 2.700000e+01
      endloop
   endfacet
   facet normal 1.000000e+00 -0.000000e+00 0.000000e+00
      outer loop
         vertex 7.000000e+01 3.500000e+00 2.800000e+01
         vertex 7.000000e+01 0.000000e+00 2.700000e+01
         vertex 7.000000e+01 8.500000e+00 2.800000e+01
      endloop
   endfacet
   facet normal 1.000000e+00 0.000000e+00 0.000000e+00
      outer loop
         vertex 7.000000e+01 8.500000e+00 2.800000e+01
         vertex 7.000000e+01 0.000000e+00 2.700000e+01
         vertex 7.000000e+01 2.500000e+01 2.700000e+01
      endloop
   endfacet
   facet normal 1.000000e+00 -0.000000e+00 0.000000e+00
      outer loop
         vertex 7.000000e+01 8.500000e+00 2.800000e+01
         vertex 7.000000e+01 2.500000e+01 2.700000e+01
         vertex 7.000000e+01 8.500000e+00 3.000000e+01
      endloop
   endfacet
   facet normal 1.000000e+00 -0.000000e+00 0.000000e+00
      outer loop
         vertex 7.000000e+01 8.500000e+00 3.000000e+01
         vertex 7.000000e+01 2.500000e+01 2.700000e+01
         vertex 7.000000e+01 2.500000e+01 3.000000e+01
      endloop
   endfacet
   facet normal 0.000000e+00 -1.000000e+00 0.000000e+00
      outer loop
         vertex 5.500000e+01 0.000000e+00 3.000000e+01
         vertex 5.500000e+01 0.000000e+00 2.700000e+01
         vertex 7.000000e+01 0.000000e+00 3.000000e+01
      endloop
   endfacet
   facet normal 0.000000e+00 -1.000000e+00 -0.000000e+00
      outer loop
         vertex 7.000000e+01 0.000000e+00 3.000000e+01
         vertex 5.500000e+01 0.000000e+00 2.700000e+01
         vertex 7.000000e+01 0.000000e+00 2.700000e+01
      endloop
   endfacet
   facet normal -1.000000e+00 0.000000e+00 0.000000e+00
      outer loop
         vertex 5.500000e+01 8.500000e+00 2.800000e+01
         vertex 5.500000e+01 8.500000e+00 3.000000e+01
         vertex 5.500000e+01 2.500000e+01 3.000000e+01
      endloop
   endfacet
   facet normal -1.000000e+00 0.000000e+00 0.000000e+00
      outer loop
         vertex 5.500000e+01 0.000000e+00 2.700000e+01
         vertex 5.500000e+01 0.000000e+00 3.000000e+01
         vertex 5.500000e+01 3.500000e+00 3.000000e+01
      endloop
   endfacet
   facet normal -1.000000e+00 0.000000e+00 -0.000000e+00
      outer loop
         vertex 5.500000e+01 3.500000e+00 3.000000e+01
         vertex 5.500000e+01 3.500000e+00 2.800000e+01
         vertex 5.500000e+01 0.000000e+00 2.700000e+01
      endloop
   endfacet
   facet normal -1.000000e+00 0.000000e+00 0.000000e+00
      outer loop
         vertex 5.500000e+01 0.000000e+00 2.700000e+01
         vertex 5.500000e+01 3.500000e+00 2.800000e+01
         vertex 5.500000e+01 8.500000e+00 2.800000e+01
      endloop
   endfacet
   facet normal -1.000000e+00 0.000000e+00 0.000000e+00
      outer loop
         vertex 5.500000e+01 0.000000e+00 2.700000e+01
         vertex 5.500000e+01 8.500000e+00 2.800000e+01
         vertex 5.500000e+01 2.500000e+01 2.700000e+01
      endloop
   endfacet
   facet normal -1.000000e+00 0.000000e+00 0.000000e+00
      outer loop
         vertex 5.500000e+01 2.500000e+01 2.700000e+01
         vertex 5.500000e+01 8.500000e+00 2.800000e+01
         vertex 5.500000e+01 2.500000e+01 3.000000e+01
      endloop
   endfacet
   facet normal -1.000000e+00 0.000000e+00 0.000000e+00
      outer loop
         vertex 6.900000e+01 2.400000e+01 2.700000e+01
         vertex 6.900000e+01 1.000000e+00 2.700000e+01
         vertex 6.900000e+01 2.400000e+01 2.800000e+01
      endloop
   endfacet
   facet normal -1.000000e+00 -0.000000e+00 0.000000e+00
      outer loop
         vertex 6.900000e+01 2.400000e+01 2.800000e+01
         vertex 6.900000e+01 1.000000e+00 2.700000e+01
         vertex 6.900000e+01 1.000000e+00 2.800000e+01
      endloop
   endfacet
   facet normal 0.000000e+00 1.000000e+00 -0.000000e+00
      outer loop
         vertex 6.900000e+01 1.000000e+00 2.700000e+01
         vertex 5.600000e+01 1.000000e+00 2.700000e+01
         vertex 6.900000e+01 1.000000e+00 2.800000e+01
      endloop
   endfacet
   facet normal 0.000000e+00 1.000000e+00 0.000000e+00
      outer loop
         vertex 6.900000e+01 1.000000e+00 2.800000e+01
         vertex 5.600000e+01 1.000000e+00 2.700000e+01
         vertex 5.600000e+01 1.000000e+00 2.800000e+01
      endloop
   endfacet
   facet normal 1.000000e+00 0.000000e+00 0.000000e+00
      outer loop
         vertex 5.600000e+01 1.000000e+00 2.700000e+01
         vertex 5.600000e+01 2.400000e+01 2.700000e+01
         vertex 5.600000e+01 1.000000e+00 2.800000e+01
      endloop
   endfacet
   facet normal 1.000000e+00 -0.000000e+00 0.000000e+00
      outer loop
         vertex 5.600000e+01 1.000000e+00 2.800000e+01
         vertex 5.600000e+01 2.400000e+01 2.700000e+01
         vertex 5.600000e+01 2.400000e+01 2.800000e+01
      endloop
   endfacet
   facet normal 0.000000e+00 -1.000000e+00 0.000000e+00
      outer loop
         vertex 5.600000e+01 2.400000e+01 2.700000e+01
         vertex 6.900000e+01 2.400000e+01 2.700000e+01
         vertex 5.600000e+01 2.400000e+01 2.800000e+01
      endloop
   endfacet
   facet normal 0.000000e+00 -1.000000e+00 0.000000e+00
      outer loop
         vertex 5.600000e+01 2.400000e+01 2.800000e+01
         vertex 6.900000e+01 2.400000e+01 2.700000e+01
         vertex 6.900000e+01 2.400000e+01 2.800000e+01
      endloop
   endfacet
endsolid