solid ServoSupport_2
   facet normal 0.000000e+00 -1.000000e+00 0.000000e+00
      outer loop
         vertex 4.800000e+01 5.525000e+01 2.450000e+01
         vertex 4.800000e+01 5.525000e+01 2.950000e+01
         vertex 4.500002e+00 5.525000e+01 2.450000e+01
      endloop
   endfacet
   facet normal 0.000000e+00 -1.000000e+00 0.000000e+00
      outer loop
         vertex 4.500002e+00 5.525000e+01 2.450000e+01
         vertex 4.800000e+01 5.525000e+01 2.950000e+01
         vertex 0.000000e+00 5.525000e+01 2.950000e+01
      endloop
   endfacet
   facet normal -0.000000e+00 -1.000000e+00 -0.000000e+00
      outer loop
         vertex 4.500002e+00 5.525000e+01 2.450000e+01
         vertex 0.000000e+00 5.525000e+01 2.950000e+01
         vertex 4.500002e+00 5.525000e+01 0.000000e+00
      endloop
   endfacet
   facet normal 0.000000e+00 -1.000000e+00 0.000000e+00
      outer loop
         vertex 4.500002e+00 5.525000e+01 0.000000e+00
         vertex 0.000000e+00 5.525000e+01 2.950000e+01
         vertex 0.000000e+00 5.525000e+01 0.000000e+00
      endloop
   endfacet
   facet normal 0.000000e+00 1.000000e+00 -0.000000e+00
      outer loop
         vertex 4.500002e+00 5.975000e+01 0.000000e+00
         vertex 0.000000e+00 5.975000e+01 0.000000e+00
         vertex 4.500002e+00 5.975000e+01 2.450000e+01
      endloop
   endfacet
   facet normal 0.000000e+00 1.000000e+00 0.000000e+00
      outer loop
         vertex 4.500002e+00 5.975000e+01 2.450000e+01
         vertex 0.000000e+00 5.975000e+01 0.000000e+00
         vertex 0.000000e+00 5.975000e+01 2.950000e+01
      endloop
   endfacet
   facet normal 0.000000e+00 1.000000e+00 -0.000000e+00
      outer loop
         vertex 4.500002e+00 5.975000e+01 2.450000e+01
         vertex 0.000000e+00 5.975000e+01 2.950000e+01
         vertex 4.800000e+01 5.975000e+01 2.450000e+01
      endloop
   endfacet
   facet normal 0.000000e+00 1.000000e+00 -0.000000e+00
      outer loop
         vertex 4.800000e+01 5.975000e+01 2.450000e+01
         vertex 0.000000e+00 5.975000e+01 2.950000e+01
         vertex 4.800000e+01 5.975000e+01 2.950000e+01
      endloop
   endfacet
   facet normal 0.000000e+00 -1.000000e+00 0.000000e+00
      outer loop
         vertex 1.105000e+02 5.525000e+01 0.000000e+00
         vertex 1.150000e+02 5.525000e+01 0.000000e+00
         vertex 1.105000e+02 5.525000e+01 2.450000e+01
      endloop
   endfacet
   facet normal 0.000000e+00 -1.000000e+00 0.000000e+00
      outer loop
         vertex 1.105000e+02 5.525000e+01 2.450000e+01
         vertex 1.150000e+02 5.525000e+01 0.000000e+00
         vertex 1.150000e+02 5.525000e+01 2.950000e+01
      endloop
   endfacet
   facet normal 0.000000e+00 -1.000000e+00 0.000000e+00
      outer loop
         vertex 1.105000e+02 5.525000e+01 2.450000e+01
         vertex 1.150000e+02 5.525000e+01 2.950000e+01
         vertex 6.700000e+01 5.525000e+01 2.450000e+01
      endloop
   endfacet
   facet normal 0.000000e+00 -1.000000e+00 0.000000e+00
      outer loop
         vertex 6.700000e+01 5.525000e+01 2.450000e+01
         vertex 1.150000e+02 5.525000e+01 2.950000e+01
         vertex 6.700000e+01 5.525000e+01 2.950000e+01
      endloop
   endfacet
   facet normal 0.000000e+00 1.000000e+00 0.000000e+00
      outer loop
         vertex 6.700000e+01 5.975000e+01 2.450000e+01
         vertex 6.700000e+01 5.975000e+01 2.950000e+01
         vertex 1.105000e+02 5.975000e+01 2.450000e+01
      endloop
   endfacet
   facet normal 0.000000e+00 1.000000e+00 -0.000000e+00
      outer loop
         vertex 1.105000e+02 5.975000e+01 2.450000e+01
         vertex 6.700000e+01 5.975000e+01 2.950000e+01
         vertex 1.150000e+02 5.975000e+01 2.950000e+01
      endloop
   endfacet
   facet normal -0.000000e+00 1.000000e+00 0.000000e+00
      outer loop
         vertex 1.105000e+02 5.975000e+01 2.450000e+01
         vertex 1.150000e+02 5.975000e+01 2.950000e+01
         vertex 1.105000e+02 5.975000e+01 0.000000e+00
      endloop
   endfacet
   facet normal 0.000000e+00 1.000000e+00 0.000000e+00
      outer loop
         vertex 1.105000e+02 5.975000e+01 0.000000e+00
         vertex 1.150000e+02 5.975000e+01 2.950000e+01
         vertex 1.150000e+02 5.975000e+01 0.000000e+00
      endloop
   endfacet
   facet normal -1.000000e+00 0.000000e+00 0.000000e+00
      outer loop
         vertex 5.525000e+01 7.850000e+01 2.450000e+01
         vertex 5.525000e+01 7.850000e+01 2.950000e+01
         vertex 5.525000e+01 1.105000e+02 2.450000e+01
      endloop
   endfacet
   facet normal -1.000000e+00 0.000000e+00 0.000000e+00
      outer loop
         vertex 5.525000e+01 1.105000e+02 2.450000e+01
         vertex 5.525000e+01 7.850000e+01 2.950000e+01
         vertex 5.525000e+01 1.150000e+02 2.950000e+01
      endloop
   endfacet
   facet normal -1.000000e+00 0.000000e+00 0.000000e+00
      outer loop
         vertex 5.525000e+01 1.105000e+02 2.450000e+01
         vertex 5.525000e+01 1.150000e+02 2.950000e+01
         vertex 5.525000e+01 1.105000e+02 0.000000e+00
      endloop
   endfacet
   facet normal -1.000000e+00 0.000000e+00 0.000000e+00
      outer loop
         vertex 5.525000e+01 1.105000e+02 0.000000e+00
         vertex 5.525000e+01 1.150000e+02 2.950000e+01
         vertex 5.525000e+01 1.150000e+02 0.000000e+00
      endloop
   endfacet
   facet normal 1.000000e+00 0.000000e+00 0.000000e+00
      outer loop
         vertex 5.975000e+01 1.105000e+02 0.000000e+00
         vertex 5.975000e+01 1.150000e+02 0.000000e+00
         vertex 5.975000e+01 1.105000e+02 2.450000e+01
      endloop
   endfacet
   facet normal 1.000000e+00 -0.000000e+00 0.000000e+00
      outer loop
         vertex 5.975000e+01 1.105000e+02 2.450000e+01
         vertex 5.975000e+01 1.150000e+02 0.000000e+00
         vertex 5.975000e+01 1.150000e+02 2.950000e+01
      endloop
   endfacet
   facet normal 1.000000e+00 0.000000e+00 -0.000000e+00
      outer loop
         vertex 5.975000e+01 1.105000e+02 2.450000e+01
         vertex 5.975000e+01 1.150000e+02 2.950000e+01
         vertex 5.975000e+01 7.850000e+01 2.450000e+01
      endloop
   endfacet
   facet normal 1.000000e+00 0.000000e+00 0.000000e+00
      outer loop
         vertex 5.975000e+01 7.850000e+01 2.450000e+01
         vertex 5.975000e+01 1.150000e+02 2.950000e+01
         vertex 5.975000e+01 7.850000e+01 2.950000e+01
      endloop
   endfacet
   facet normal -1.000000e+00 0.000000e+00 0.000000e+00
      outer loop
         vertex 5.525000e+01 4.499998e+00 0.000000e+00
         vertex 5.525000e+01 0.000000e+00 0.000000e+00
         vertex 5.525000e+01 4.499998e+00 2.450000e+01
      endloop
   endfacet
   facet normal -1.000000e+00 -0.000000e+00 0.000000e+00
      outer loop
         vertex 5.525000e+01 4.499998e+00 2.450000e+01
         vertex 5.525000e+01 0.000000e+00 0.000000e+00
         vertex 5.525000e+01 0.000000e+00 2.950000e+01
      endloop
   endfacet
   facet normal -1.000000e+00 0.000000e+00 0.000000e+00
      outer loop
         vertex 5.525000e+01 4.499998e+00 2.450000e+01
         vertex 5.525000e+01 0.000000e+00 2.950000e+01
         vertex 5.525000e+01 5.150000e+01 2.450000e+01
      endloop
   endfacet
   facet normal -1.000000e+00 0.000000e+00 0.000000e+00
      outer loop
         vertex 5.525000e+01 5.150000e+01 2.450000e+01
         vertex 5.525000e+01 0.000000e+00 2.950000e+01
         vertex 5.525000e+01 5.150000e+01 2.950000e+01
      endloop
   endfacet
   facet normal 1.000000e+00 0.000000e+00 -0.000000e+00
      outer loop
         vertex 5.975000e+01 5.150000e+01 2.450000e+01
         vertex 5.975000e+01 5.150000e+01 2.950000e+01
         vertex 5.975000e+01 4.499998e+00 2.450000e+01
      endloop
   endfacet
   facet normal 1.000000e+00 0.000000e+00 -0.000000e+00
      outer loop
         vertex 5.975000e+01 4.499998e+00 2.450000e+01
         vertex 5.975000e+01 5.150000e+01 2.950000e+01
         vertex 5.975000e+01 0.000000e+00 2.950000e+01
      endloop
   endfacet
   facet normal 1.000000e+00 0.000000e+00 0.000000e+00
      outer loop
         vertex 5.975000e+01 4.499998e+00 2.450000e+01
         vertex 5.975000e+01 0.000000e+00 2.950000e+01
         vertex 5.975000e+01 4.499998e+00 0.000000e+00
      endloop
   endfacet
   facet normal 1.000000e+00 0.000000e+00 0.000000e+00
      outer loop
         vertex 5.975000e+01 4.499998e+00 0.000000e+00
         vertex 5.975000e+01 0.000000e+00 2.950000e+01
         vertex 5.975000e+01 0.000000e+00 0.000000e+00
      endloop
   endfacet
   facet normal 0.000000e+00 0.000000e+00 -1.000000e+00
      outer loop
         vertex 6.700000e+01 5.975000e+01 2.450000e+01
         vertex 1.105000e+02 5.975000e+01 2.450000e+01
         vertex 6.700000e+01 5.525000e+01 2.450000e+01
      endloop
   endfacet
   facet normal 0.000000e+00 0.000000e+00 -1.000000e+00
      outer loop
         vertex 6.700000e+01 5.525000e+01 2.450000e+01
         vertex 1.105000e+02 5.975000e+01 2.450000e+01
         vertex 1.105000e+02 5.525000e+01 2.450000e+01
      endloop
   endfacet
   facet normal 0.000000e+00 0.000000e+00 -1.000000e+00
      outer loop
         vertex 5.525000e+01 5.150000e+01 2.450000e+01
         vertex 5.100000e+01 5.150000e+01 2.450000e+01
         vertex 5.100000e+01 7.550000e+01 2.450000e+01
      endloop
   endfacet
   facet normal 0.000000e+00 -0.000000e+00 -1.000000e+00
      outer loop
         vertex 6.400000e+01 7.550000e+01 2.450000e+01
         vertex 6.400000e+01 5.150000e+01 2.450000e+01
         vertex 5.975000e+01 5.150000e+01 2.450000e+01
      endloop
   endfacet
   facet normal 0.000000e+00 0.000000e+00 -1.000000e+00
      outer loop
         vertex 5.975000e+01 4.499998e+00 2.450000e+01
         vertex 5.525000e+01 4.499998e+00 2.450000e+01
         vertex 5.975000e+01 5.150000e+01 2.450000e+01
      endloop
   endfacet
   facet normal -0.000000e+00 0.000000e+00 -1.000000e+00
      outer loop
         vertex 5.975000e+01 5.150000e+01 2.450000e+01
         vertex 5.525000e+01 4.499998e+00 2.450000e+01
         vertex 5.525000e+01 5.150000e+01 2.450000e+01
      endloop
   endfacet
   facet normal 0.000000e+00 0.000000e+00 -1.000000e+00
      outer loop
         vertex 5.975000e+01 5.150000e+01 2.450000e+01
         vertex 5.525000e+01 5.150000e+01 2.450000e+01
         vertex 6.400000e+01 7.550000e+01 2.450000e+01
      endloop
   endfacet
   facet normal -0.000000e+00 0.000000e+00 -1.000000e+00
      outer loop
         vertex 6.400000e+01 7.550000e+01 2.450000e+01
         vertex 5.525000e+01 5.150000e+01 2.450000e+01
         vertex 5.100000e+01 7.550000e+01 2.450000e+01
      endloop
   endfacet
   facet normal 0.000000e+00 0.000000e+00 -1.000000e+00
      outer loop
         vertex 4.800000e+01 5.525000e+01 2.450000e+01
         vertex 4.500002e+00 5.525000e+01 2.450000e+01
         vertex 4.800000e+01 5.975000e+01 2.450000e+01
      endloop
   endfacet
   facet normal -0.000000e+00 0.000000e+00 -1.000000e+00
      outer loop
         vertex 4.800000e+01 5.975000e+01 2.450000e+01
         vertex 4.500002e+00 5.525000e+01 2.450000e+01
         vertex 4.500002e+00 5.975000e+01 2.450000e+01
      endloop
   endfacet
   facet normal -1.000000e+00 0.000000e+00 0.000000e+00
      outer loop
         vertex 1.105000e+02 5.525000e+01 2.450000e+01
         vertex 1.105000e+02 5.975000e+01 2.450000e+01
         vertex 1.105000e+02 5.525000e+01 0.000000e+00
      endloop
   endfacet
   facet normal -1.000000e+00 0.000000e+00 0.000000e+00
      outer loop
         vertex 1.105000e+02 5.525000e+01 0.000000e+00
         vertex 1.105000e+02 5.975000e+01 2.450000e+01
         vertex 1.105000e+02 5.975000e+01 0.000000e+00
      endloop
   endfacet
   facet normal 1.000000e+00 0.000000e+00 0.000000e+00
      outer loop
         vertex 1.150000e+02 5.975000e+01 2.950000e+01
         vertex 1.150000e+02 5.525000e+01 2.950000e+01
         vertex 1.150000e+02 5.975000e+01 0.000000e+00
      endloop
   endfacet
   facet normal 1.000000e+00 0.000000e+00 0.000000e+00
      outer loop
         vertex 1.150000e+02 5.975000e+01 0.000000e+00
         vertex 1.150000e+02 5.525000e+01 2.950000e+01
         vertex 1.150000e+02 5.525000e+01 0.000000e+00
      endloop
   endfacet
   facet normal 0.000000e+00 0.000000e+00 1.000000e+00
      outer loop
         vertex 6.700000e+01 5.525000e+01 2.950000e+01
         vertex 1.150000e+02 5.525000e+01 2.950000e+01
         vertex 1.150000e+02 5.975000e+01 2.950000e+01
      endloop
   endfacet
   facet normal 0.000000e+00 0.000000e+00 1.000000e+00
      outer loop
         vertex 5.975000e+01 1.150000e+02 2.950000e+01
         vertex 5.525000e+01 1.150000e+02 2.950000e+01
         vertex 5.975000e+01 7.850000e+01 2.950000e+01
      endloop
   endfacet
   facet normal 0.000000e+00 0.000000e+00 1.000000e+00
      outer loop
         vertex 5.975000e+01 7.850000e+01 2.950000e+01
         vertex 5.525000e+01 1.150000e+02 2.950000e+01
         vertex 5.525000e+01 7.850000e+01 2.950000e+01
      endloop
   endfacet
   facet normal -0.000000e+00 0.000000e+00 1.000000e+00
      outer loop
         vertex 0.000000e+00 5.975000e+01 2.950000e+01
         vertex 0.000000e+00 5.525000e+01 2.950000e+01
         vertex 4.800000e+01 5.975000e+01 2.950000e+01
      endloop
   endfacet
   facet normal 0.000000e+00 0.000000e+00 1.000000e+00
      outer loop
         vertex 4.800000e+01 5.975000e+01 2.950000e+01
         vertex 0.000000e+00 5.525000e+01 2.950000e+01
         vertex 4.800000e+01 5.525000e+01 2.950000e+01
      endloop
   endfacet
   facet normal 0.000000e+00 -0.000000e+00 1.000000e+00
      outer loop
         vertex 6.700000e+01 5.975000e+01 2.950000e+01
         vertex 6.700000e+01 7.850000e+01 2.950000e+01
         vertex 4.800000e+01 5.525000e+01 2.950000e+01
      endloop
   endfacet
   facet normal 0.000000e+00 0.000000e+00 1.000000e+00
      outer loop
         vertex 4.800000e+01 5.525000e+01 2.950000e+01
         vertex 6.700000e+01 7.850000e+01 2.950000e+01
         vertex 5.975000e+01 7.850000e+01 2.950000e+01
      endloop
   endfacet
   facet normal 0.000000e+00 0.000000e+00 1.000000e+00
      outer loop
         vertex 4.800000e+01 5.525000e+01 2.950000e+01
         vertex 5.975000e+01 7.850000e+01 2.950000e+01
         vertex 4.800000e+01 5.975000e+01 2.950000e+01
      endloop
   endfacet
   facet normal 0.000000e+00 0.000000e+00 1.000000e+00
      outer loop
         vertex 4.800000e+01 5.975000e+01 2.950000e+01
         vertex 5.975000e+01 7.850000e+01 2.950000e+01
         vertex 5.525000e+01 7.850000e+01 2.950000e+01
      endloop
   endfacet
   facet normal 0.000000e+00 0.000000e+00 1.000000e+00
      outer loop
         vertex 4.800000e+01 5.975000e+01 2.950000e+01
         vertex 5.525000e+01 7.850000e+01 2.950000e+01
         vertex 4.800000e+01 7.850000e+01 2.950000e+01
      endloop
   endfacet
   facet normal 0.000000e+00 0.000000e+00 1.000000e+00
      outer loop
         vertex 4.800000e+01 5.525000e+01 2.950000e+01
         vertex 4.800000e+01 5.150000e+01 2.950000e+01
         vertex 5.525000e+01 5.150000e+01 2.950000e+01
      endloop
   endfacet
   facet normal 0.000000e+00 0.000000e+00 1.000000e+00
      outer loop
         vertex 5.975000e+01 5.150000e+01 2.950000e+01
         vertex 6.700000e+01 5.150000e+01 2.950000e+01
         vertex 6.700000e+01 5.525000e+01 2.950000e+01
      endloop
   endfacet
   facet normal 0.000000e+00 0.000000e+00 1.000000e+00
      outer loop
         vertex 5.525000e+01 0.000000e+00 2.950000e+01
         vertex 5.975000e+01 0.000000e+00 2.950000e+01
         vertex 5.525000e+01 5.150000e+01 2.950000e+01
      endloop
   endfacet
   facet normal -0.000000e+00 0.000000e+00 1.000000e+00
      outer loop
         vertex 5.525000e+01 5.150000e+01 2.950000e+01
         vertex 5.975000e+01 0.000000e+00 2.950000e+01
         vertex 5.975000e+01 5.150000e+01 2.950000e+01
      endloop
   endfacet
   facet normal 0.000000e+00 -0.000000e+00 1.000000e+00
      outer loop
         vertex 5.525000e+01 5.150000e+01 2.950000e+01
         vertex 5.975000e+01 5.150000e+01 2.950000e+01
         vertex 4.800000e+01 5.525000e+01 2.950000e+01
      endloop
   endfacet
   facet normal -0.000000e+00 0.000000e+00 1.000000e+00
      outer loop
         vertex 4.800000e+01 5.525000e+01 2.950000e+01
         vertex 5.975000e+01 5.150000e+01 2.950000e+01
         vertex 6.700000e+01 5.525000e+01 2.950000e+01
      endloop
   endfacet
   facet normal 0.000000e+00 0.000000e+00 1.000000e+00
      outer loop
         vertex 4.800000e+01 5.525000e+01 2.950000e+01
         vertex 6.700000e+01 5.525000e+01 2.950000e+01
         vertex 6.700000e+01 5.975000e+01 2.950000e+01
      endloop
   endfacet
   facet normal -0.000000e+00 0.000000e+00 1.000000e+00
      outer loop
         vertex 6.700000e+01 5.975000e+01 2.950000e+01
         vertex 6.700000e+01 5.525000e+01 2.950000e+01
         vertex 1.150000e+02 5.975000e+01 2.950000e+01
      endloop
   endfacet
   facet normal -1.000000e+00 0.000000e+00 0.000000e+00
      outer loop
         vertex 0.000000e+00 5.525000e+01 2.950000e+01
         vertex 0.000000e+00 5.975000e+01 2.950000e+01
         vertex 0.000000e+00 5.525000e+01 0.000000e+00
      endloop
   endfacet
   facet normal -1.000000e+00 0.000000e+00 0.000000e+00
      outer loop
         vertex 0.000000e+00 5.525000e+01 0.000000e+00
         vertex 0.000000e+00 5.975000e+01 2.950000e+01
         vertex 0.000000e+00 5.975000e+01 0.000000e+00
      endloop
   endfacet
   facet normal 1.000000e+00 0.000000e+00 0.000000e+00
      outer loop
         vertex 4.500002e+00 5.975000e+01 2.450000e+01
         vertex 4.500002e+00 5.525000e+01 2.450000e+01
         vertex 4.500002e+00 5.975000e+01 0.000000e+00
      endloop
   endfacet
   facet normal 1.000000e+00 0.000000e+00 0.000000e+00
      outer loop
         vertex 4.500002e+00 5.975000e+01 0.000000e+00
         vertex 4.500002e+00 5.525000e+01 2.450000e+01
         vertex 4.500002e+00 5.525000e+01 0.000000e+00
      endloop
   endfacet
   facet normal -0.000000e+00 1.000000e+00 0.000000e+00
      outer loop
         vertex 5.975000e+01 7.850000e+01 2.950000e+01
         vertex 6.700000e+01 7.850000e+01 2.950000e+01
         vertex 5.975000e+01 7.850000e+01 2.450000e+01
      endloop
   endfacet
   facet normal -0.000000e+00 1.000000e+00 0.000000e+00
      outer loop
         vertex 5.975000e+01 7.850000e+01 2.450000e+01
         vertex 6.700000e+01 7.850000e+01 2.950000e+01
         vertex 6.700000e+01 7.850000e+01 1.450000e+01
      endloop
   endfacet
   facet normal 0.000000e+00 1.000000e+00 0.000000e+00
      outer loop
         vertex 5.975000e+01 7.850000e+01 2.450000e+01
         vertex 6.700000e+01 7.850000e+01 1.450000e+01
         vertex 5.525000e+01 7.850000e+01 2.450000e+01
      endloop
   endfacet
   facet normal 0.000000e+00 1.000000e+00 0.000000e+00
      outer loop
         vertex 5.525000e+01 7.850000e+01 2.450000e+01
         vertex 6.700000e+01 7.850000e+01 1.450000e+01
         vertex 4.800000e+01 7.850000e+01 1.450000e+01
      endloop
   endfacet
   facet normal 0.000000e+00 1.000000e+00 -0.000000e+00
      outer loop
         vertex 5.525000e+01 7.850000e+01 2.450000e+01
         vertex 4.800000e+01 7.850000e+01 1.450000e+01
         vertex 5.525000e+01 7.850000e+01 2.950000e+01
      endloop
   endfacet
   facet normal 0.000000e+00 1.000000e+00 0.000000e+00
      outer loop
         vertex 5.525000e+01 7.850000e+01 2.950000e+01
         vertex 4.800000e+01 7.850000e+01 1.450000e+01
         vertex 4.800000e+01 7.850000e+01 2.950000e+01
      endloop
   endfacet
   facet normal 1.000000e+00 0.000000e+00 0.000000e+00
      outer loop
         vertex 6.700000e+01 5.525000e+01 2.950000e+01
         vertex 6.700000e+01 5.150000e+01 2.950000e+01
         vertex 6.700000e+01 5.525000e+01 2.450000e+01
      endloop
   endfacet
   facet normal 1.000000e+00 0.000000e+00 0.000000e+00
      outer loop
         vertex 6.700000e+01 5.525000e+01 2.450000e+01
         vertex 6.700000e+01 5.150000e+01 2.950000e+01
         vertex 6.700000e+01 5.150000e+01 1.450000e+01
      endloop
   endfacet
   facet normal 1.000000e+00 -0.000000e+00 0.000000e+00
      outer loop
         vertex 6.700000e+01 5.525000e+01 2.450000e+01
         vertex 6.700000e+01 5.150000e+01 1.450000e+01
         vertex 6.700000e+01 5.975000e+01 2.450000e+01
      endloop
   endfacet
   facet normal 1.000000e+00 0.000000e+00 0.000000e+00
      outer loop
         vertex 6.700000e+01 5.975000e+01 2.450000e+01
         vertex 6.700000e+01 5.150000e+01 1.450000e+01
         vertex 6.700000e+01 7.850000e+01 1.450000e+01
      endloop
   endfacet
   facet normal 1.000000e+00 -0.000000e+00 0.000000e+00
      outer loop
         vertex 6.700000e+01 5.975000e+01 2.450000e+01
         vertex 6.700000e+01 7.850000e+01 1.450000e+01
         vertex 6.700000e+01 5.975000e+01 2.950000e+01
      endloop
   endfacet
   facet normal 1.000000e+00 -0.000000e+00 0.000000e+00
      outer loop
         vertex 6.700000e+01 5.975000e+01 2.950000e+01
         vertex 6.700000e+01 7.850000e+01 1.450000e+01
         vertex 6.700000e+01 7.850000e+01 2.950000e+01
      endloop
   endfacet
   facet normal 0.000000e+00 -1.000000e+00 0.000000e+00
      outer loop
         vertex 6.400000e+01 5.150000e+01 1.450000e+01
         vertex 6.700000e+01 5.150000e+01 1.450000e+01
         vertex 6.400000e+01 5.150000e+01 2.450000e+01
      endloop
   endfacet
   facet normal 0.000000e+00 -1.000000e+00 0.000000e+00
      outer loop
         vertex 6.400000e+01 5.150000e+01 2.450000e+01
         vertex 6.700000e+01 5.150000e+01 1.450000e+01
         vertex 6.700000e+01 5.150000e+01 2.950000e+01
      endloop
   endfacet
   facet normal 0.000000e+00 -1.000000e+00 0.000000e+00
      outer loop
         vertex 6.400000e+01 5.150000e+01 2.450000e+01
         vertex 6.700000e+01 5.150000e+01 2.950000e+01
         vertex 5.975000e+01 5.150000e+01 2.450000e+01
      endloop
   endfacet
   facet normal 0.000000e+00 -1.000000e+00 0.000000e+00
      outer loop
         vertex 5.975000e+01 5.150000e+01 2.450000e+01
         vertex 6.700000e+01 5.150000e+01 2.950000e+01
         vertex 5.975000e+01 5.150000e+01 2.950000e+01
      endloop
   endfacet
   facet normal -1.000000e+00 0.000000e+00 0.000000e+00
      outer loop
         vertex 6.400000e+01 7.550000e+01 1.450000e+01
         vertex 6.400000e+01 5.150000e+01 1.450000e+01
         vertex 6.400000e+01 7.550000e+01 2.450000e+01
      endloop
   endfacet
   facet normal -1.000000e+00 -0.000000e+00 0.000000e+00
      outer loop
         vertex 6.400000e+01 7.550000e+01 2.450000e+01
         vertex 6.400000e+01 5.150000e+01 1.450000e+01
         vertex 6.400000e+01 5.150000e+01 2.450000e+01
      endloop
   endfacet
   facet normal 0.000000e+00 -1.000000e+00 0.000000e+00
      outer loop
         vertex 5.100000e+01 7.550000e+01 1.450000e+01
         vertex 6.400000e+01 7.550000e+01 1.450000e+01
         vertex 5.100000e+01 7.550000e+01 2.450000e+01
      endloop
   endfacet
   facet normal 0.000000e+00 -1.000000e+00 0.000000e+00
      outer loop
         vertex 5.100000e+01 7.550000e+01 2.450000e+01
         vertex 6.400000e+01 7.550000e+01 1.450000e+01
         vertex 6.400000e+01 7.550000e+01 2.450000e+01
      endloop
   endfacet
   facet normal 1.000000e+00 0.000000e+00 0.000000e+00
      outer loop
         vertex 5.100000e+01 5.150000e+01 1.450000e+01
         vertex 5.100000e+01 7.550000e+01 1.450000e+01
         vertex 5.100000e+01 5.150000e+01 2.450000e+01
      endloop
   endfacet
   facet normal 1.000000e+00 -0.000000e+00 0.000000e+00
      outer loop
         vertex 5.100000e+01 5.150000e+01 2.450000e+01
         vertex 5.100000e+01 7.550000e+01 1.450000e+01
         vertex 5.100000e+01 7.550000e+01 2.450000e+01
      endloop
   endfacet
   facet normal 0.000000e+00 -1.000000e+00 0.000000e+00
      outer loop
         vertex 5.525000e+01 5.150000e+01 2.450000e+01
         vertex 5.525000e+01 5.150000e+01 2.950000e+01
         vertex 5.100000e+01 5.150000e+01 2.450000e+01
      endloop
   endfacet
   facet normal 0.000000e+00 -1.000000e+00 0.000000e+00
      outer loop
         vertex 5.100000e+01 5.150000e+01 2.450000e+01
         vertex 5.525000e+01 5.150000e+01 2.950000e+01
         vertex 4.800000e+01 5.150000e+01 2.950000e+01
      endloop
   endfacet
   facet normal -0.000000e+00 -1.000000e+00 -0.000000e+00
      outer loop
         vertex 5.100000e+01 5.150000e+01 2.450000e+01
         vertex 4.800000e+01 5.150000e+01 2.950000e+01
         vertex 5.100000e+01 5.150000e+01 1.450000e+01
      endloop
   endfacet
   facet normal 0.000000e+00 -1.000000e+00 0.000000e+00
      outer loop
         vertex 5.100000e+01 5.150000e+01 1.450000e+01
         vertex 4.800000e+01 5.150000e+01 2.950000e+01
         vertex 4.800000e+01 5.150000e+01 1.450000e+01
      endloop
   endfacet
   facet normal -1.000000e+00 0.000000e+00 0.000000e+00
      outer loop
         vertex 4.800000e+01 5.975000e+01 2.950000e+01
         vertex 4.800000e+01 7.850000e+01 2.950000e+01
         vertex 4.800000e+01 5.975000e+01 2.450000e+01
      endloop
   endfacet
   facet normal -1.000000e+00 0.000000e+00 0.000000e+00
      outer loop
         vertex 4.800000e+01 5.975000e+01 2.450000e+01
         vertex 4.800000e+01 7.850000e+01 2.950000e+01
         vertex 4.800000e+01 7.850000e+01 1.450000e+01
      endloop
   endfacet
   facet normal -1.000000e+00 -0.000000e+00 -0.000000e+00
      outer loop
         vertex 4.800000e+01 5.975000e+01 2.450000e+01
         vertex 4.800000e+01 7.850000e+01 1.450000e+01
         vertex 4.800000e+01 5.525000e+01 2.450000e+01
      endloop
   endfacet
   facet normal -1.000000e+00 0.000000e+00 -0.000000e+00
      outer loop
         vertex 4.800000e+01 5.525000e+01 2.450000e+01
         vertex 4.800000e+01 7.850000e+01 1.450000e+01
         vertex 4.800000e+01 5.150000e+01 1.450000e+01
      endloop
   endfacet
   facet normal -1.000000e+00 -0.000000e+00 0.000000e+00
      outer loop
         vertex 4.800000e+01 5.525000e+01 2.450000e+01
         vertex 4.800000e+01 5.150000e+01 1.450000e+01
         vertex 4.800000e+01 5.525000e+01 2.950000e+01
      endloop
   endfacet
   facet normal -1.000000e+00 -0.000000e+00 0.000000e+00
      outer loop
         vertex 4.800000e+01 5.525000e+01 2.950000e+01
         vertex 4.800000e+01 5.150000e+01 1.450000e+01
         vertex 4.800000e+01 5.150000e+01 2.950000e+01
      endloop
   endfacet
   facet normal 0.000000e+00 0.000000e+00 -1.000000e+00
      outer loop
         vertex 5.100000e+01 5.150000e+01 1.450000e+01
         vertex 4.800000e+01 5.150000e+01 1.450000e+01
         vertex 5.100000e+01 7.550000e+01 1.450000e+01
      endloop
   endfacet
   facet normal -0.000000e+00 0.000000e+00 -1.000000e+00
      outer loop
         vertex 5.100000e+01 7.550000e+01 1.450000e+01
         vertex 4.800000e+01 5.150000e+01 1.450000e+01
         vertex 4.800000e+01 7.850000e+01 1.450000e+01
      endloop
   endfacet
   facet normal 0.000000e+00 0.000000e+00 -1.000000e+00
      outer loop
         vertex 5.100000e+01 7.550000e+01 1.450000e+01
         vertex 4.800000e+01 7.850000e+01 1.450000e+01
         vertex 6.400000e+01 7.550000e+01 1.450000e+01
      endloop
   endfacet
   facet normal 0.000000e+00 0.000000e+00 -1.000000e+00
      outer loop
         vertex 6.400000e+01 7.550000e+01 1.450000e+01
         vertex 4.800000e+01 7.850000e+01 1.450000e+01
         vertex 6.700000e+01 7.850000e+01 1.450000e+01
      endloop
   endfacet
   facet normal 0.000000e+00 0.000000e+00 -1.000000e+00
      outer loop
         vertex 6.400000e+01 7.550000e+01 1.450000e+01
         vertex 6.700000e+01 7.850000e+01 1.450000e+01
         vertex 6.400000e+01 5.150000e+01 1.450000e+01
      endloop
   endfacet
   facet normal 0.000000e+00 0.000000e+00 -1.000000e+00
      outer loop
         vertex 6.400000e+01 5.150000e+01 1.450000e+01
         vertex 6.700000e+01 7.850000e+01 1.450000e+01
         vertex 6.700000e+01 5.150000e+01 1.450000e+01
      endloop
   endfacet
   facet normal -0.000000e+00 1.000000e+00 0.000000e+00
      outer loop
         vertex 5.525000e+01 1.150000e+02 2.950000e+01
         vertex 5.975000e+01 1.150000e+02 2.950000e+01
         vertex 5.525000e+01 1.150000e+02 0.000000e+00
      endloop
   endfacet
   facet normal 0.000000e+00 1.000000e+00 0.000000e+00
      outer loop
         vertex 5.525000e+01 1.150000e+02 0.000000e+00
         vertex 5.975000e+01 1.150000e+02 2.950000e+01
         vertex 5.975000e+01 1.150000e+02 0.000000e+00
      endloop
   endfacet
   facet normal -0.000000e+00 -1.000000e+00 -0.000000e+00
      outer loop
         vertex 5.975000e+01 1.105000e+02 2.450000e+01
         vertex 5.525000e+01 1.105000e+02 2.450000e+01
         vertex 5.975000e+01 1.105000e+02 0.000000e+00
      endloop
   endfacet
   facet normal 0.000000e+00 -1.000000e+00 0.000000e+00
      outer loop
         vertex 5.975000e+01 1.105000e+02 0.000000e+00
         vertex 5.525000e+01 1.105000e+02 2.450000e+01
         vertex 5.525000e+01 1.105000e+02 0.000000e+00
      endloop
   endfacet
   facet normal 0.000000e+00 0.000000e+00 -1.000000e+00
      outer loop
         vertex 5.525000e+01 1.105000e+02 2.450000e+01
         vertex 5.975000e+01 1.105000e+02 2.450000e+01
         vertex 5.525000e+01 7.850000e+01 2.450000e+01
      endloop
   endfacet
   facet normal 0.000000e+00 0.000000e+00 -1.000000e+00
      outer loop
         vertex 5.525000e+01 7.850000e+01 2.450000e+01
         vertex 5.975000e+01 1.105000e+02 2.450000e+01
         vertex 5.975000e+01 7.850000e+01 2.450000e+01
      endloop
   endfacet
   facet normal -0.000000e+00 1.000000e+00 0.000000e+00
      outer loop
         vertex 5.525000e+01 4.499998e+00 2.450000e+01
         vertex 5.975000e+01 4.499998e+00 2.450000e+01
         vertex 5.525000e+01 4.499998e+00 0.000000e+00
      endloop
   endfacet
   facet normal 0.000000e+00 1.000000e+00 0.000000e+00
      outer loop
         vertex 5.525000e+01 4.499998e+00 0.000000e+00
         vertex 5.975000e+01 4.499998e+00 2.450000e+01
         vertex 5.975000e+01 4.499998e+00 0.000000e+00
      endloop
   endfacet
   facet normal -0.000000e+00 -1.000000e+00 -0.000000e+00
      outer loop
         vertex 5.975000e+01 0.000000e+00 2.950000e+01
         vertex 5.525000e+01 0.000000e+00 2.950000e+01
         vertex 5.975000e+01 0.000000e+00 0.000000e+00
      endloop
   endfacet
   facet normal 0.000000e+00 -1.000000e+00 0.000000e+00
      outer loop
         vertex 5.975000e+01 0.000000e+00 0.000000e+00
         vertex 5.525000e+01 0.000000e+00 2.950000e+01
         vertex 5.525000e+01 0.000000e+00 0.000000e+00
      endloop
   endfacet
   facet normal 0.000000e+00 0.000000e+00 -1.000000e+00
      outer loop
         vertex 5.975000e+01 0.000000e+00 0.000000e+00
         vertex 5.525000e+01 0.000000e+00 0.000000e+00
         vertex 5.975000e+01 4.499998e+00 0.000000e+00
      endloop
   endfacet
   facet normal -0.000000e+00 0.000000e+00 -1.000000e+00
      outer loop
         vertex 5.975000e+01 4.499998e+00 0.000000e+00
         vertex 5.525000e+01 0.000000e+00 0.000000e+00
         vertex 5.525000e+01 4.499998e+00 0.000000e+00
      endloop
   endfacet
   facet normal 0.000000e+00 0.000000e+00 -1.000000e+00
      outer loop
         vertex 5.975000e+01 1.105000e+02 0.000000e+00
         vertex 5.525000e+01 1.105000e+02 0.000000e+00
         vertex 5.975000e+01 1.150000e+02 0.000000e+00
      endloop
   endfacet
   facet normal -0.000000e+00 0.000000e+00 -1.000000e+00
      outer loop
         vertex 5.975000e+01 1.150000e+02 0.000000e+00
         vertex 5.525000e+01 1.105000e+02 0.000000e+00
         vertex 5.525000e+01 1.150000e+02 0.000000e+00
      endloop
   endfacet
   facet normal -0.000000e+00 -0.000000e+00 -1.000000e+00
      outer loop
         vertex 4.500002e+00 5.975000e+01 0.000000e+00
         vertex 4.500002e+00 5.525000e+01 0.000000e+00
         vertex 0.000000e+00 5.975000e+01 0.000000e+00
      endloop
   endfacet
   facet normal 0.000000e+00 0.000000e+00 -1.000000e+00
      outer loop
         vertex 0.000000e+00 5.975000e+01 0.000000e+00
         vertex 4.500002e+00 5.525000e+01 0.000000e+00
         vertex 0.000000e+00 5.525000e+01 0.000000e+00
      endloop
   endfacet
   facet normal -0.000000e+00 -0.000000e+00 -1.000000e+00
      outer loop
         vertex 1.150000e+02 5.975000e+01 0.000000e+00
         vertex 1.150000e+02 5.525000e+01 0.000000e+00
         vertex 1.105000e+02 5.975000e+01 0.000000e+00
      endloop
   endfacet
   facet normal 0.000000e+00 0.000000e+00 -1.000000e+00
      outer loop
         vertex 1.105000e+02 5.975000e+01 0.000000e+00
         vertex 1.150000e+02 5.525000e+01 0.000000e+00
         vertex 1.105000e+02 5.525000e+01 0.000000e+00
      endloop
   endfacet
endsolid